HIERARCHY
ROOT Hips
{
	OFFSET 0.000000 0.000000 0.000000
	CHANNELS 6 Xposition Yposition Zposition Zrotation Yrotation Xrotation 
	JOINT LHipJoint
	{
		OFFSET 0.000000 0.000000 0.000000
		CHANNELS 3 Zrotation Yrotation Xrotation
		JOINT LeftUpLeg
		{
			OFFSET 1.363060 -1.794630 0.839290
			CHANNELS 3 Zrotation Yrotation Xrotation
			JOINT LeftLeg
			{
				OFFSET 2.448110 -6.726130 0.000000
				CHANNELS 3 Zrotation Yrotation Xrotation
				JOINT LeftFoot
				{
					OFFSET 2.562200 -7.039590 0.000000
					CHANNELS 3 Zrotation Yrotation Xrotation
					JOINT LeftToeBase
					{
						OFFSET 0.157640 -0.433110 2.322550
						CHANNELS 3 Zrotation Yrotation Xrotation
						End Site
						{
							OFFSET 0.000000 0.000000 0.000000
						}
					}
				}
			}
		}
	}
	JOINT RHipJoint
	{
		OFFSET 0.000000 0.000000 0.000000
		CHANNELS 3 Zrotation Yrotation Xrotation
		JOINT RightUpLeg
		{
			OFFSET -1.305520 -1.794630 0.839290
			CHANNELS 3 Zrotation Yrotation Xrotation
			JOINT RightLeg
			{
				OFFSET -2.542530 -6.985550 0.000000
				CHANNELS 3 Zrotation Yrotation Xrotation
				JOINT RightFoot
				{
					OFFSET -2.568260 -7.056230 0.000000
					CHANNELS 3 Zrotation Yrotation Xrotation
					JOINT RightToeBase
					{
						OFFSET -0.164730 -0.452590 2.363150
						CHANNELS 3 Zrotation Yrotation Xrotation
						End Site
						{
							OFFSET 0.000000 0.000000 0.000000
						}
					}
				}
			}
		}
	}
	JOINT LowerBack
	{
		OFFSET 0.000000 0.000000 0.000000
		CHANNELS 3 Zrotation Yrotation Xrotation
		JOINT Spine
		{
			OFFSET 0.028270 2.035590 -0.193380
			CHANNELS 3 Zrotation Yrotation Xrotation
			JOINT Spine1
			{
				OFFSET 0.056720 2.048850 -0.042750
				CHANNELS 3 Zrotation Yrotation Xrotation
				JOINT Neck
				{
					OFFSET 0.000000 0.000000 0.000000
					CHANNELS 3 Zrotation Yrotation Xrotation
					JOINT Neck1
					{
						OFFSET -0.054170 1.746240 0.172020
						CHANNELS 3 Zrotation Yrotation Xrotation
						JOINT Head
						{
							OFFSET 0.104070 1.761360 -0.123970
							CHANNELS 3 Zrotation Yrotation Xrotation
							End Site
							{
								OFFSET 0.000000 0.000000 0.000000
							}
						}
					}
				}
				JOINT LeftShoulder
				{
					OFFSET 0.000000 0.000000 0.000000
					CHANNELS 3 Zrotation Yrotation Xrotation
					JOINT LeftArm
					{
						OFFSET 3.362410 1.200890 -0.311210
						CHANNELS 3 Zrotation Yrotation Xrotation
						JOINT LeftForeArm
						{
							OFFSET 4.983000 -0.000000 -0.000000
							CHANNELS 3 Zrotation Yrotation Xrotation
							JOINT LeftHand
							{
								OFFSET 3.483560 -0.000000 -0.000000
								CHANNELS 3 Zrotation Yrotation Xrotation
								JOINT LeftFingerBase
								{
									OFFSET 0.000000 0.000000 0.000000
									CHANNELS 3 Zrotation Yrotation Xrotation
									JOINT LeftHandIndex1
									{
										OFFSET 0.715260 -0.000000 -0.000000
										CHANNELS 3 Zrotation Yrotation Xrotation
										End Site
										{
											OFFSET 0.000000 0.000000 0.000000
										}
									}
								}
								JOINT LThumb
								{
									OFFSET 0.000000 0.000000 0.000000
									CHANNELS 3 Zrotation Yrotation Xrotation
									End Site
									{
										OFFSET 0.000000 0.000000 0.000000
									}
								}
							}
						}
					}
				}
				JOINT RightShoulder
				{
					OFFSET 0.000000 0.000000 0.000000
					CHANNELS 3 Zrotation Yrotation Xrotation
					JOINT RightArm
					{
						OFFSET -3.136600 1.374050 -0.404650
						CHANNELS 3 Zrotation Yrotation Xrotation
						JOINT RightForeArm
						{
							OFFSET -5.241900 -0.000000 -0.000000
							CHANNELS 3 Zrotation Yrotation Xrotation
							JOINT RightHand
							{
								OFFSET -3.444170 -0.000000 -0.000000
								CHANNELS 3 Zrotation Yrotation Xrotation
								JOINT RightFingerBase
								{
									OFFSET 0.000000 0.000000 0.000000
									CHANNELS 3 Zrotation Yrotation Xrotation
									JOINT RightHandIndex1
									{
										OFFSET -0.622530 -0.000000 -0.000000
										CHANNELS 3 Zrotation Yrotation Xrotation
										End Site
										{
											OFFSET 0.000000 0.000000 0.000000
										}
									}
								}
								JOINT RThumb
								{
									OFFSET 0.000000 0.000000 0.000000
									CHANNELS 3 Zrotation Yrotation Xrotation
									End Site
									{
										OFFSET 0.000000 0.000000 0.000000
									}
								}
							}
						}
					}
				}
			}
		}
	}
}
MOTION
Frames: 5
Frame Time: 0.008333
-2.174459 17.188346 -0.871877 -138.621624 84.555796 -107.986322 -8.835179 -1.063871 -0.450591 -21.944057 -2.170994 -58.462139 -3.246674 0.569100 21.204191 1.894091 9.346384 -1.399237 1.984600 -0.000000 -32.342300 9.923092 -1.534891 -6.841978 14.001199 -18.049291 -34.359475 1.893128 -4.378669 45.225297 0.004771 3.283491 12.389537 1.035200 0.000000 -78.178900 -1.643775 1.664365 10.292246 -0.908183 2.000781 -1.274963 -4.430533 2.033270 -1.819874 5.597700 -7.440934 -5.437702 0.075371 -0.006637 0.225946 0.000000 0.000000 0.000000 7.522502 16.844753 0.907066 -59.817349 45.872413 38.079726 -179.922805 -85.859565 -179.999105 -0.242817 2.061055 -0.004400 0.013894 0.046354 0.000000 0.000000 0.000000 0.000000 0.000000 0.000000 0.000000 -7.281594 -0.465494 -1.914290 65.900892 7.060849 15.599105 179.856574 72.532159 179.916478 -11.159851 5.253294 -0.578203 0.226532 -0.554626 -0.000000 0.000000 0.000000 0.000000 0.000000 0.000000 0.000000 
-1.971754 17.175011 -0.904699 -138.940185 84.305389 -108.474052 -8.840824 -0.922766 -0.587207 -23.107226 -1.495334 -58.359174 -3.356873 0.577251 20.875084 1.892837 9.509391 -0.923596 2.111400 0.000001 -32.209700 10.004622 -1.553180 -6.826675 13.623288 -18.298516 -34.259292 1.751214 -4.455019 46.343955 -0.017027 3.610538 13.524483 1.244200 -0.000000 -77.127800 -1.724462 1.664819 10.348911 -0.919741 2.010996 -1.257015 -4.436054 2.047273 -1.772983 5.600533 -7.498920 -5.483505 0.075573 -0.005830 0.213763 0.000000 0.000000 0.000000 7.629873 17.118893 0.910198 -60.429913 45.310909 37.736402 -179.909698 -85.428109 -179.999181 -0.125839 1.810449 -0.002085 0.014770 0.056149 0.000000 0.000000 0.000000 0.000000 0.000000 0.000000 0.000000 -7.373542 -0.508492 -1.958969 66.031748 6.763496 15.716039 179.865966 72.145335 179.917139 -11.026741 5.327285 -0.578709 0.222420 -0.557295 -0.000000 0.000000 0.000000 0.000000 0.000000 0.000000 0.000000 
-1.769027 17.150011 -0.937607 -138.922603 84.061555 -108.622976 -8.842253 -0.788301 -0.734762 -24.189868 -0.806872 -58.289581 -3.439316 0.607133 20.833307 1.927493 9.775224 -0.700747 2.208200 0.000001 -31.259600 10.076753 -1.567874 -6.784636 13.258318 -18.397029 -34.218750 1.601903 -4.534250 47.646211 -0.055013 3.707582 14.172012 1.346200 -0.000000 -75.798100 -1.790999 1.668865 10.388481 -0.927918 2.024577 -1.240505 -4.441109 2.064620 -1.716033 5.596747 -7.557585 -5.535236 0.075065 -0.004978 0.200067 0.000000 0.000000 0.000000 7.729746 17.376693 0.927029 -61.142504 44.644220 37.289949 -179.900780 -85.100180 -179.999255 -0.046110 1.542750 -0.000672 0.016197 0.066749 0.000000 0.000000 0.000000 0.000000 0.000000 0.000000 0.000000 -7.471276 -0.552019 -2.004794 66.233692 6.454741 15.837929 179.878255 71.821629 179.917914 -10.872811 5.444899 -0.582314 0.217104 -0.560741 -0.000000 0.000000 0.000000 0.000000 0.000000 0.000000 0.000000 
-1.566591 17.113059 -0.970890 -138.512312 83.825545 -108.378639 -8.841499 -0.668578 -0.886294 -25.141334 -0.126710 -58.236846 -3.493537 0.651885 21.048683 1.996511 10.115460 -0.794134 2.255000 -0.000000 -29.419400 10.136868 -1.580715 -6.721981 12.915649 -18.349917 -34.232813 1.444379 -4.617806 49.130501 -0.106730 3.540402 14.298057 1.316000 0.000000 -74.307399 -1.837940 1.677676 10.412173 -0.931429 2.042311 -1.225121 -4.443813 2.086015 -1.649958 5.579487 -7.614435 -5.592877 0.074888 -0.004002 0.184820 0.000000 0.000000 0.000000 7.820308 17.614113 0.958584 -61.963740 43.893730 36.714183 -179.895545 -84.880906 -179.999285 -0.025741 1.253464 -0.000363 0.018564 0.078164 0.000000 0.000000 0.000000 0.000000 0.000000 0.000000 0.000000 -7.585029 -0.592065 -2.051627 66.510033 6.139634 15.961397 179.893464 71.571517 179.918836 -10.691110 5.609099 -0.588424 0.210335 -0.564995 -0.000000 0.000000 0.000000 0.000000 0.000000 0.000000 0.000000 
-1.364612 17.063900 -1.004737 -137.664278 83.596479 -107.687983 -8.840681 -0.570557 -1.031169 -25.917778 0.515718 -58.208572 -3.520424 0.707121 21.506968 2.097814 10.498458 -1.257485 2.229200 0.000000 -26.703800 10.182204 -1.593297 -6.639956 12.610351 -18.152006 -34.310831 1.277414 -4.706109 50.795242 -0.172015 3.086752 13.890170 1.146900 0.000000 -72.673100 -1.860509 1.691212 10.411737 -0.929449 2.063633 -1.213336 -4.443725 2.110732 -1.577899 5.544847 -7.661599 -5.655220 0.074982 -0.002942 0.168533 0.000000 0.000000 0.000000 7.889285 17.825060 1.004125 -62.887644 43.092678 35.980830 -179.892814 -84.759231 -179.999228 -0.082275 0.933380 -0.000659 0.022128 0.090480 0.000000 0.000000 0.000000 0.000000 0.000000 0.000000 0.000000 -7.718636 -0.618905 -2.098656 66.860372 5.818921 16.081198 179.911195 71.401958 179.919920 -10.477834 5.821864 -0.596837 0.202018 -0.570077 -0.000000 0.000000 0.000000 0.000000 0.000000 0.000000 0.000000 
